<svg width="138" height="35" viewBox="0 0 138 35" fill="none" xmlns="http://www.w3.org/2000/svg">
<path fill-rule="evenodd" clip-rule="evenodd" d="M18.0001 0.00710183C13.3562 -0.124827 8.66991 1.58135 5.12563 5.12563C-1.70854 11.9598 -1.70854 23.0402 5.12563 29.8744C11.9598 36.7085 23.0402 36.7085 29.8744 29.8744C33.1643 26.5845 34.8704 22.3106 34.9929 18.0001L28.9892 18.0001C28.8692 20.7743 27.75 23.5134 25.6317 25.6317C21.1407 30.1228 13.8593 30.1228 9.36827 25.6317C4.87724 21.1407 4.87724 13.8593 9.36827 9.36827C11.741 6.99554 14.8926 5.87639 18.0001 6.01081V0.00710183Z" fill="#22FAAC"/>
<path d="M52.4113 16.9339C52.6273 16.5139 52.9213 16.1359 53.2933 15.7999C53.6773 15.4639 54.0673 15.2059 54.4633 15.0259C54.8593 14.8339 55.1713 14.7379 55.3993 14.7379L55.2733 17.2579C55.2013 17.2459 55.0993 17.2399 54.9673 17.2399C54.4633 17.2399 54.0193 17.3719 53.6353 17.6359C53.2513 17.8999 52.9573 18.2419 52.7533 18.6619C52.5493 19.0699 52.4473 19.4899 52.4473 19.9219V22.9999H49.9453V15.1339H52.2133L52.4113 16.9339Z" fill="black"/>
<path d="M60.9006 21.0739C61.4046 21.0739 61.9266 20.8999 62.4666 20.5519L63.5826 22.4239C63.1506 22.6639 62.6946 22.8559 62.2146 22.9999C61.7346 23.1439 61.2786 23.2159 60.8466 23.2159C59.9106 23.2159 59.1006 23.0419 58.4166 22.6939C57.7446 22.3339 57.2346 21.8359 56.8866 21.1999C56.5386 20.5519 56.3646 19.8139 56.3646 18.9859C56.3646 18.2179 56.5626 17.5099 56.9586 16.8619C57.3666 16.2139 57.9186 15.7039 58.6146 15.3319C59.3106 14.9479 60.0726 14.7559 60.9006 14.7559C62.0286 14.7559 62.9526 15.0859 63.6726 15.7459C64.4046 16.4059 64.8786 17.3479 65.0946 18.5719L59.3346 20.4079C59.7186 20.8519 60.2406 21.0739 60.9006 21.0739ZM60.7026 16.7179C60.1386 16.7179 59.6886 16.9099 59.3526 17.2939C59.0166 17.6779 58.8486 18.1939 58.8486 18.8419V19.0039L62.3046 17.8339C62.0526 17.0899 61.5186 16.7179 60.7026 16.7179Z" fill="black"/>
<path d="M69.4818 23.1619C68.8338 23.1619 68.2278 23.0479 67.6638 22.8199C67.0998 22.5919 66.6318 22.2739 66.2598 21.8659L67.3038 20.4799C67.9998 21.1279 68.6538 21.4519 69.2658 21.4519C69.5898 21.4519 69.8478 21.4039 70.0398 21.3079C70.2438 21.1999 70.3458 21.0439 70.3458 20.8399C70.3458 20.5999 70.2318 20.4199 70.0038 20.2999C69.7758 20.1679 69.5178 20.0599 69.2298 19.9759C68.9538 19.8919 68.7678 19.8379 68.6718 19.8139C67.9878 19.5979 67.4778 19.2799 67.1418 18.8599C66.8058 18.4279 66.6378 17.9359 66.6378 17.3839C66.6378 16.9639 66.7458 16.5559 66.9618 16.1599C67.1898 15.7519 67.5378 15.4219 68.0058 15.1699C68.4738 14.9059 69.0558 14.7739 69.7518 14.7739C70.3998 14.7739 70.9518 14.8399 71.4078 14.9719C71.8638 15.1039 72.3018 15.3199 72.7218 15.6199L71.7678 17.0959C71.5278 16.9039 71.2578 16.7479 70.9578 16.6279C70.6698 16.4959 70.4058 16.4299 70.1658 16.4299C69.8778 16.4299 69.6438 16.4899 69.4638 16.6099C69.2838 16.7299 69.1938 16.8739 69.1938 17.0419C69.1818 17.2939 69.2838 17.4859 69.4998 17.6179C69.7278 17.7379 70.0758 17.8639 70.5438 17.9959C70.6158 18.0199 70.6878 18.0439 70.7598 18.0679C70.8438 18.0919 70.9278 18.1159 71.0118 18.1399C72.2478 18.5479 72.8658 19.2919 72.8658 20.3719C72.8658 20.8759 72.7398 21.3379 72.4878 21.7579C72.2358 22.1779 71.8518 22.5199 71.3358 22.7839C70.8318 23.0359 70.2138 23.1619 69.4818 23.1619Z" fill="black"/>
<path d="M80.4126 14.7379C81.1446 14.7379 81.7986 14.9119 82.3746 15.2599C82.9506 15.6079 83.4006 16.1059 83.7246 16.7539C84.0606 17.4019 84.2286 18.1639 84.2286 19.0399C84.2286 19.9039 84.0426 20.6539 83.6706 21.2899C83.3106 21.9139 82.8006 22.3939 82.1406 22.7299C81.4926 23.0539 80.7486 23.2159 79.9086 23.2159C79.4526 23.2159 79.0026 23.1379 78.5586 22.9819C78.1266 22.8139 77.7666 22.5799 77.4786 22.2799V26.7799H74.9766V14.9539H77.1366L77.3526 15.8899C78.3126 15.1219 79.3326 14.7379 80.4126 14.7379ZM79.4046 21.2359C80.0286 21.2359 80.5626 21.0319 81.0066 20.6239C81.4506 20.2159 81.6726 19.6999 81.6726 19.0759C81.6726 18.4279 81.4686 17.8999 81.0606 17.4919C80.6646 17.0719 80.1726 16.8619 79.5846 16.8619C79.0926 16.8619 78.6726 16.9639 78.3246 17.1679C77.9886 17.3599 77.7126 17.6539 77.4966 18.0499V19.9759C77.6286 20.3599 77.8626 20.6659 78.1986 20.8939C78.5466 21.1219 78.9486 21.2359 79.4046 21.2359Z" fill="black"/>
<path d="M85.597 18.9679C85.597 18.1639 85.783 17.4439 86.155 16.8079C86.539 16.1719 87.073 15.6739 87.757 15.3139C88.453 14.9419 89.239 14.7559 90.115 14.7559C90.991 14.7559 91.759 14.9419 92.419 15.3139C93.091 15.6739 93.607 16.1719 93.967 16.8079C94.327 17.4439 94.507 18.1639 94.507 18.9679C94.507 19.7719 94.327 20.4979 93.967 21.1459C93.607 21.7939 93.091 22.3039 92.419 22.6759C91.759 23.0359 90.979 23.2159 90.079 23.2159C89.203 23.2159 88.423 23.0479 87.739 22.7119C87.067 22.3639 86.539 21.8719 86.155 21.2359C85.783 20.5999 85.597 19.8439 85.597 18.9679ZM88.135 18.9859C88.135 19.6099 88.315 20.1319 88.675 20.5519C89.035 20.9599 89.491 21.1639 90.043 21.1639C90.619 21.1639 91.081 20.9599 91.429 20.5519C91.789 20.1439 91.969 19.6219 91.969 18.9859C91.969 18.3499 91.789 17.8279 91.429 17.4199C91.081 17.0119 90.619 16.8079 90.043 16.8079C89.491 16.8079 89.035 17.0179 88.675 17.4379C88.315 17.8459 88.135 18.3619 88.135 18.9859Z" fill="black"/>
<path d="M101.964 14.7559C102.708 14.7559 103.326 14.9779 103.818 15.4219C104.322 15.8659 104.58 16.4299 104.592 17.1139V22.9999H102.072V18.0499C102.036 17.2819 101.652 16.8979 100.92 16.8979C100.344 16.8979 99.8822 17.1679 99.5342 17.7079C99.1862 18.2479 99.0122 18.9439 99.0122 19.7959V22.9999H96.4922V15.1339H98.7782L98.9582 16.3939C99.2462 15.8779 99.6422 15.4759 100.146 15.1879C100.662 14.8999 101.268 14.7559 101.964 14.7559Z" fill="black"/>
<path d="M109.736 23.1619C109.088 23.1619 108.482 23.0479 107.918 22.8199C107.354 22.5919 106.886 22.2739 106.514 21.8659L107.558 20.4799C108.254 21.1279 108.908 21.4519 109.52 21.4519C109.844 21.4519 110.102 21.4039 110.294 21.3079C110.498 21.1999 110.6 21.0439 110.6 20.8399C110.6 20.5999 110.486 20.4199 110.258 20.2999C110.03 20.1679 109.772 20.0599 109.484 19.9759C109.208 19.8919 109.022 19.8379 108.926 19.8139C108.242 19.5979 107.732 19.2799 107.396 18.8599C107.06 18.4279 106.892 17.9359 106.892 17.3839C106.892 16.9639 107 16.5559 107.216 16.1599C107.444 15.7519 107.792 15.4219 108.26 15.1699C108.728 14.9059 109.31 14.7739 110.006 14.7739C110.654 14.7739 111.206 14.8399 111.662 14.9719C112.118 15.1039 112.556 15.3199 112.976 15.6199L112.022 17.0959C111.782 16.9039 111.512 16.7479 111.212 16.6279C110.924 16.4959 110.66 16.4299 110.42 16.4299C110.132 16.4299 109.898 16.4899 109.718 16.6099C109.538 16.7299 109.448 16.8739 109.448 17.0419C109.436 17.2939 109.538 17.4859 109.754 17.6179C109.982 17.7379 110.33 17.8639 110.798 17.9959C110.87 18.0199 110.942 18.0439 111.014 18.0679C111.098 18.0919 111.182 18.1159 111.266 18.1399C112.502 18.5479 113.12 19.2919 113.12 20.3719C113.12 20.8759 112.994 21.3379 112.742 21.7579C112.49 22.1779 112.106 22.5199 111.59 22.7839C111.086 23.0359 110.468 23.1619 109.736 23.1619Z" fill="black"/>
<path d="M117.75 15.1339V22.9999H115.23V15.1339H117.75ZM115.176 12.3439C115.176 11.9839 115.314 11.6839 115.59 11.4439C115.878 11.1919 116.202 11.0659 116.562 11.0659C116.91 11.0659 117.222 11.1919 117.498 11.4439C117.774 11.6839 117.912 11.9839 117.912 12.3439C117.912 12.7039 117.774 13.0039 117.498 13.2439C117.222 13.4839 116.91 13.6039 116.562 13.6039C116.202 13.6039 115.878 13.4839 115.59 13.2439C115.314 13.0039 115.176 12.7039 115.176 12.3439Z" fill="black"/>
<path d="M128.482 15.1339L124.018 23.1619H123.946L119.23 15.1339H122.218L124.054 18.8779L125.674 15.1339H128.482Z" fill="black"/>
<path d="M133.621 21.0739C134.125 21.0739 134.647 20.8999 135.187 20.5519L136.303 22.4239C135.871 22.6639 135.415 22.8559 134.935 22.9999C134.455 23.1439 133.999 23.2159 133.567 23.2159C132.631 23.2159 131.821 23.0419 131.137 22.6939C130.465 22.3339 129.955 21.8359 129.607 21.1999C129.259 20.5519 129.085 19.8139 129.085 18.9859C129.085 18.2179 129.283 17.5099 129.679 16.8619C130.087 16.2139 130.639 15.7039 131.335 15.3319C132.031 14.9479 132.793 14.7559 133.621 14.7559C134.749 14.7559 135.673 15.0859 136.393 15.7459C137.125 16.4059 137.599 17.3479 137.815 18.5719L132.055 20.4079C132.439 20.8519 132.961 21.0739 133.621 21.0739ZM133.423 16.7179C132.859 16.7179 132.409 16.9099 132.073 17.2939C131.737 17.6779 131.569 18.1939 131.569 18.8419V19.0039L135.025 17.8339C134.773 17.0899 134.239 16.7179 133.423 16.7179Z" fill="black"/>
</svg>
